<mxfile host="app.diagrams.net" modified="2023-08-26T19:44:38.406Z" agent="Mozilla/5.0 (Windows NT 10.0; Win64; x64) AppleWebKit/537.36 (KHTML, like Gecko) Chrome/116.0.0.0 Safari/537.36" etag="AWyRZ00G1rvzaop66JEE" version="21.6.9" type="github">
  <diagram name="Página-1" id="9yIJgMpK2wTOoWDSrCOy">
    <mxGraphModel dx="1434" dy="790" grid="1" gridSize="10" guides="1" tooltips="1" connect="1" arrows="1" fold="1" page="1" pageScale="1" pageWidth="827" pageHeight="1169" math="0" shadow="0">
      <root>
        <mxCell id="0" />
        <mxCell id="1" parent="0" />
        <mxCell id="bEA6j5xDelpwVL9Z-9OB-3" value="&#xa;&lt;p style=&quot;box-sizing: border-box; margin-top: 0px; margin-bottom: 16px; color: rgb(230, 237, 243); font-family: -apple-system, BlinkMacSystemFont, &amp;quot;Segoe UI&amp;quot;, &amp;quot;Noto Sans&amp;quot;, Helvetica, Arial, sans-serif, &amp;quot;Apple Color Emoji&amp;quot;, &amp;quot;Segoe UI Emoji&amp;quot;; font-size: 16px; font-style: normal; font-variant-ligatures: normal; font-variant-caps: normal; font-weight: 400; letter-spacing: normal; orphans: 2; text-align: start; text-indent: 0px; text-transform: none; widows: 2; word-spacing: 0px; -webkit-text-stroke-width: 0px; background-color: rgb(13, 17, 23); text-decoration-thickness: initial; text-decoration-style: initial; text-decoration-color: initial;&quot; dir=&quot;auto&quot;&gt;Se desea diseñar una base de datos para almacenar y gestionar la información empleada por una empresa dedicada a la venta de automóviles, teniendo en cuenta los siguientes aspectos:&lt;/p&gt;&lt;ul style=&quot;box-sizing: border-box; padding-left: 2em; margin-top: 0px; margin-bottom: 16px; color: rgb(230, 237, 243); font-family: -apple-system, BlinkMacSystemFont, &amp;quot;Segoe UI&amp;quot;, &amp;quot;Noto Sans&amp;quot;, Helvetica, Arial, sans-serif, &amp;quot;Apple Color Emoji&amp;quot;, &amp;quot;Segoe UI Emoji&amp;quot;; font-size: 16px; font-style: normal; font-variant-ligatures: normal; font-variant-caps: normal; font-weight: 400; letter-spacing: normal; orphans: 2; text-align: start; text-indent: 0px; text-transform: none; widows: 2; word-spacing: 0px; -webkit-text-stroke-width: 0px; background-color: rgb(13, 17, 23); text-decoration-thickness: initial; text-decoration-style: initial; text-decoration-color: initial;&quot; dir=&quot;auto&quot;&gt;&lt;li style=&quot;box-sizing: border-box;&quot;&gt;La empresa dispone de una serie de coches para su venta. Se necesita conocer la matrícula, marca y modelo, el color y el precio de venta de cada coche.&lt;/li&gt;&lt;li style=&quot;box-sizing: border-box; margin-top: 0.25em;&quot;&gt;Los datos que interesa conocer de cada cliente son el RFC, nombre, dirección, ciudad y número de teléfono: además, los clientes se diferencian por un código interno de la empresa que se incrementa automáticamente cuando un cliente se da de alta en ella.&lt;/li&gt;&lt;li style=&quot;box-sizing: border-box; margin-top: 0.25em;&quot;&gt;Un cliente puede comprar tantos coches como desee a la empresa.&lt;/li&gt;&lt;li style=&quot;box-sizing: border-box; margin-top: 0.25em;&quot;&gt;Un coche determinado solo puede ser comprado por un único cliente.&lt;/li&gt;&lt;li style=&quot;box-sizing: border-box; margin-top: 0.25em;&quot;&gt;El concesionario también se encarga de llevar a cabo las revisiones que se realizan a cada coche.&lt;/li&gt;&lt;li style=&quot;box-sizing: border-box; margin-top: 0.25em;&quot;&gt;Cada revisión tiene asociado un código que se incrementa automáticamente por cada revisión que se haga.&lt;/li&gt;&lt;li style=&quot;box-sizing: border-box; margin-top: 0.25em;&quot;&gt;De cada revisión se desea saber si se ha hecho cambio de filtro, si se ha hecho cambio de aceite, si se ha hecho cambio de frenos u otros.&lt;/li&gt;&lt;li style=&quot;box-sizing: border-box; margin-top: 0.25em;&quot;&gt;Los coches pueden pasar varias revisiones en el concesionario.&lt;/li&gt;&lt;/ul&gt;&#xa;&#xa;" style="text;html=1;strokeColor=none;fillColor=none;spacing=5;spacingTop=-20;whiteSpace=wrap;overflow=hidden;rounded=0;" vertex="1" parent="1">
          <mxGeometry x="29" y="10" width="770" height="340" as="geometry" />
        </mxCell>
        <mxCell id="bEA6j5xDelpwVL9Z-9OB-10" style="edgeStyle=orthogonalEdgeStyle;rounded=0;orthogonalLoop=1;jettySize=auto;html=1;exitX=1;exitY=0.5;exitDx=0;exitDy=0;" edge="1" parent="1" source="bEA6j5xDelpwVL9Z-9OB-5" target="bEA6j5xDelpwVL9Z-9OB-8">
          <mxGeometry relative="1" as="geometry" />
        </mxCell>
        <mxCell id="bEA6j5xDelpwVL9Z-9OB-5" value="COCHE" style="rounded=0;whiteSpace=wrap;html=1;" vertex="1" parent="1">
          <mxGeometry x="120" y="430" width="120" height="60" as="geometry" />
        </mxCell>
        <mxCell id="bEA6j5xDelpwVL9Z-9OB-9" style="edgeStyle=orthogonalEdgeStyle;rounded=0;orthogonalLoop=1;jettySize=auto;html=1;exitX=0;exitY=0.5;exitDx=0;exitDy=0;" edge="1" parent="1" source="bEA6j5xDelpwVL9Z-9OB-6" target="bEA6j5xDelpwVL9Z-9OB-8">
          <mxGeometry relative="1" as="geometry" />
        </mxCell>
        <mxCell id="bEA6j5xDelpwVL9Z-9OB-6" value="CLIENTE" style="rounded=0;whiteSpace=wrap;html=1;" vertex="1" parent="1">
          <mxGeometry x="640" y="430" width="120" height="60" as="geometry" />
        </mxCell>
        <mxCell id="bEA6j5xDelpwVL9Z-9OB-7" value="CONCESIONARIO" style="rounded=0;whiteSpace=wrap;html=1;" vertex="1" parent="1">
          <mxGeometry x="120" y="710" width="120" height="60" as="geometry" />
        </mxCell>
        <mxCell id="bEA6j5xDelpwVL9Z-9OB-8" value="COMPRA" style="rhombus;whiteSpace=wrap;html=1;" vertex="1" parent="1">
          <mxGeometry x="400" y="420" width="80" height="80" as="geometry" />
        </mxCell>
        <mxCell id="bEA6j5xDelpwVL9Z-9OB-11" value="1" style="text;html=1;strokeColor=none;fillColor=none;align=center;verticalAlign=middle;whiteSpace=wrap;rounded=0;" vertex="1" parent="1">
          <mxGeometry x="600" y="430" width="60" height="30" as="geometry" />
        </mxCell>
        <mxCell id="bEA6j5xDelpwVL9Z-9OB-12" value="N" style="text;html=1;strokeColor=none;fillColor=none;align=center;verticalAlign=middle;whiteSpace=wrap;rounded=0;" vertex="1" parent="1">
          <mxGeometry x="460" y="430" width="60" height="30" as="geometry" />
        </mxCell>
        <mxCell id="bEA6j5xDelpwVL9Z-9OB-13" value="1" style="text;html=1;strokeColor=none;fillColor=none;align=center;verticalAlign=middle;whiteSpace=wrap;rounded=0;" vertex="1" parent="1">
          <mxGeometry x="220" y="430" width="60" height="30" as="geometry" />
        </mxCell>
        <mxCell id="bEA6j5xDelpwVL9Z-9OB-14" value="1" style="text;html=1;strokeColor=none;fillColor=none;align=center;verticalAlign=middle;whiteSpace=wrap;rounded=0;" vertex="1" parent="1">
          <mxGeometry x="360" y="430" width="60" height="30" as="geometry" />
        </mxCell>
        <mxCell id="bEA6j5xDelpwVL9Z-9OB-15" value="REVISIÓN&amp;nbsp;" style="rhombus;whiteSpace=wrap;html=1;" vertex="1" parent="1">
          <mxGeometry x="140" y="560" width="80" height="80" as="geometry" />
        </mxCell>
      </root>
    </mxGraphModel>
  </diagram>
</mxfile>
